/* XPM */
static char * coin_xpm[] = {
"32 32 2 1",
" 	c None",
".	c #FFFFFF",
"                                ",
"                                ",
"                                ",
"                                ",
"            ........            ",
"            ........            ",
"            ........            ",
"            ........            ",
"        ................        ",
"        ................        ",
"        ................        ",
"        ................        ",
"    ........        ........    ",
"    ........        ........    ",
"    ........        ........    ",
"    ........        ........    ",
"    ........    ............    ",
"    ........    ............    ",
"    ........    ............    ",
"    ........    ............    ",
"        ................        ",
"        ................        ",
"        ................        ",
"        ................        ",
"            ........            ",
"            ........            ",
"            ........            ",
"            ........            ",
"                                ",
"                                ",
"                                ",
"                                "};
