/* XPM */
static char *result[] = {
/* columns rows colors chars-per-pixel */
"64 64 8 1 ",
"  c #161C2E",
". c #6F5A48",
"X c #977B6B",
"o c #B3A645",
"O c #D5B583",
"+ c #EFE1AB",
"@ c white",
"# c None",
/* pixels */
"################################################################",
"################################################################",
"################################################################",
"################################################################",
"################################################################",
"################################################################",
"################################################################",
"################################################################",
"################################################################",
"################################################################",
"################################################################",
"################################################################",
"################################################################",
"################################################################",
"################################################################",
"################################################################",
"################################################################",
"################################################################",
"################################################################",
"################################################################",
"################################################################",
"################################################################",
"################################################################",
"#############################      #############################",
"###########################  @+++++ ############################",
"##########################  @@+++++@ ###########################",
"########################## O@@++@+@@  ##########################",
"#########################  O+++++++++ ##########################",
"######################### XO+O+++++++ ##########################",
"######################### XO++++++++++ #########################",
"######################## OXOOO++O+++OO #########################",
"######################  +OOXOOOOOOOOOXO ########################",
"###################### ++O+OOOXOXX XOOO++ ######################",
"#######################   O +OOOOO  ++O  #######################",
"#########################  ++O++  ..    ########################",
"#########################        .o.    ########################",
"#########################XOO o.ooooo OOX########################",
"######################### X   .....   X ########################",
"########################## #  ###   ############################",
"############################  #### #############################",
"############################  #### #############################",
"################################################################",
"################################################################",
"################################################################",
"################################################################",
"################################################################",
"################################################################",
"################################################################",
"################################################################",
"################################################################",
"################################################################",
"################################################################",
"################################################################",
"################################################################",
"################################################################",
"################################################################",
"################################################################",
"################################################################",
"################################################################",
"################################################################",
"################################################################",
"################################################################",
"################################################################",
"################################################################"
};
