/* XPM */
static char * left_xpm[] = {
"64 64 5 1",
" 	c None",
".	c #3D253B",
"+	c #9B869C",
"@	c #AD99AC",
"#	c #877688",
"                                                                ",
"                                                                ",
"                                                                ",
"                                                                ",
"                                                                ",
"                                                                ",
"                                                                ",
"                                                                ",
"                                                                ",
"                                                                ",
"                                                                ",
"                                                                ",
"                                                                ",
"                                                                ",
"                                                                ",
"                                                                ",
"                                                                ",
"                                                                ",
"                          ............                          ",
"                          ............                          ",
"                        ..++++++++++++..                        ",
"                        ..++++++++++++..                        ",
"                        ..++@@@@@@@@++..                        ",
"                        ..++@@@@@@@@++..                        ",
"                        ..@@@@@@@@@@++..                        ",
"                        ..@@@@@@@@@@++..                        ",
"                        ....@@@@..@@++..                        ",
"                        ....@@@@..@@++..                        ",
"                        ..@@@@@@@@@@++..                        ",
"                        ..@@@@@@@@@@++..                        ",
"                        ..@@@@@@@@++##..                        ",
"                        ..@@@@@@@@++##..                        ",
"                          ..########++@@..                      ",
"                          ..########++@@..                      ",
"                        ..++@@@@@@++++@@@@..                    ",
"                        ..++@@@@@@++++@@@@..                    ",
"                        ..++@@@@@@++++++@@..                    ",
"                        ..++@@@@@@++++++@@..                    ",
"                          ..@@@@++++++....                      ",
"                          ..@@@@++++++....                      ",
"                          ..++++++++@@..                        ",
"                          ..++++++++@@..                        ",
"                        ..++++....@@@@@@..                      ",
"                        ..++++....@@@@@@..                      ",
"                        ..++++..  ..@@@@..                      ",
"                        ..++++..  ..@@@@..                      ",
"                                                                ",
"                                                                ",
"                                                                ",
"                                                                ",
"                                                                ",
"                                                                ",
"                                                                ",
"                                                                ",
"                                                                ",
"                                                                ",
"                                                                ",
"                                                                ",
"                                                                ",
"                                                                ",
"                                                                ",
"                                                                ",
"                                                                ",
"                                                                "};
