/* XPM */
static char *_40d09b9cd4b40fddd57344c64476fbb1a6lgcCLYWCcINWf[] = {
/* columns rows colors chars-per-pixel */
"64 43 14 1 ",
"  c None",
". c #161C2E",
"X c #3C474B",
"o c #506A69",
"O c #866353",
"+ c #9E785D",
"@ c #B48355",
"# c #CEA554",
"$ c #DAB570",
"% c #E9F044",
"& c #669D9D",
"* c #D0DEB5",
"= c #8CC3C4",
"- c white",
/* pixels */
"                                                                ",
"                                                                ",
"                         .....o&ooo....                         ",
"                       .=.&==&o&&&&o&#-..                       ",
"                     .o&=&&&&&&&&&=&&o&=&o.                     ",
"                   ...o&=&+===&======o&=&o...                   ",
"                 ..&ooo&*=-.&&&&&==&.==*&ooo&..                 ",
"                .&.&+o.o&&oo=&&&&&&=oo+&o.oo&.&.                ",
"               ..&X%%o===ooo===o.o=&&%%+==o&&X&..               ",
"              .oX&XX.o====.o&&=**o&&o#%o==oXXX&Xo.              ",
"              .ooX++.o&&&..o&&&&&.&&&.o&&&o.XXXoo.              ",
"            .oX.==-#oo&&&==oo&&&&.&&===&&&oo.==&.Xo.            ",
"            Xooo==&.%%+oo=====.oo.o==*&&o..&====o.oX            ",
"           Xoooo&=*%--.oo&&&**...==oo&&&o++===&&ooooX           ",
"          ....ooo&&&.#.o&&&&&o.===*oo&&&.%%%&&&&oo.%..          ",
"          .oXoo&.&&&.o.o&&&&&oo&&&&&o&#-.#%%&&&.&oo.o.          ",
"         .Xoooo=====o..=.&&&&++&&&&.==.==.#o=====ooooX.         ",
"         o+%+o=======ooo===&o.%o.o=**&&&ooo=======o.oXo         ",
"         o.%#&&&&***oo.o&=***&&o.o&&&&&&o.oo***&&&&..Xo         ",
"         XXoo&&&&&&&oo.oo&&&&&&o.o&&&&&&o.oo&&&&+&&ooXX.        ",
"        .X.o&=&&&&&&o..@.&@&&@@@@@@..&..@..o&&&.-&=&o.X.        ",
"        .X.oo====&&&..@$$$@$$$$$$$$$@$$$@$..&++.%.=oo%+.        ",
"        X.ooo++==&oooo.O@@@O@@O@@@@@@@@@O.oo.%-%=oooo#.X        ",
"        o&==%%%.&&ooo..@@@@@@@@@@@@@O@O@@..o.#%%oooo==&o.       ",
"       .o&==%%#.-#.==o....................o=====.=====&o.       ",
"       .&&&&&#..o.=*oo.O.O.%%%%%%%%%%.O.O.oo**==.o&&&&&&.       ",
"       .&&&&&&o.&&&&&o.O.OO%%---%%%%%O.OO.o&&&&&.o&&&&&&.       ",
"       oo=&&&o%.&&&&&ooOO@O.%-----%%.%OOOoo&&&&++=o&&&=oo       ",
"      .o&&====#.&&&&oo..OO%.%%%%-%%%.%@O..%o&&.#%=====&&o.      ",
"      .o&&&o*&&.=====&&.@@%.%%%%%%%%.%.@..#====.=&&*o&&&o.      ",
"      o.&&&&&&&=======&.@$@.%%#%%%%%.@O@.&=======&&&&&&&.o      ",
"        . &&&&oo**oooooo@$@.%%%###%%.@@@oooooo**oo&&&& .        ",
"            ...o&&&&&&oo@@O.%%%####%.O@.o.&&&&&&o...            ",
"               .&&&&&   .OO@%%####%%@OO..  .&&&&..              ",
"                        ...@.       ..O.                        ",
"                                                                ",
"                                                                ",
"                                                                ",
"                                                                ",
"                                                                ",
"                                                                ",
"                                                                ",
"                                                                "
};
