/* XPM */
static char * inac_xpm[] = {
"32 32 2 1",
" 	c None",
".	c #FFFFFF",
"            ........            ",
"            ........            ",
"            ........            ",
"            ........            ",
"        ................        ",
"        ................        ",
"        ................        ",
"        ................        ",
"    ........................    ",
"    ........................    ",
"    ........................    ",
"    ........................    ",
"    ........................    ",
"    ........................    ",
"    ........................    ",
"    ........................    ",
"    ........................    ",
"    ........................    ",
"    ........................    ",
"    ........................    ",
"    ........................    ",
"    ........................    ",
"    ........................    ",
"    ........................    ",
"    ........................    ",
"    ........................    ",
"    ........................    ",
"    ........................    ",
"    ........................    ",
"    ........................    ",
"    ........................    ",
"    ........................    "};
