/* XPM */
static char *result[] = {
/* columns rows colors chars-per-pixel */
"64 64 166 2 ",
"   c #01012C",
".  c #030A2D",
"X  c #0B0D2D",
"o  c #05112D",
"O  c #0D122D",
"+  c #12152D",
"@  c #151B2E",
"#  c #181E2E",
"$  c #1D242F",
"%  c #1C2631",
"&  c #1F2A32",
"*  c #242D2F",
"=  c #222F32",
"-  c #292C30",
";  c #253434",
":  c #2A3430",
">  c #2A3A34",
",  c #253438",
"<  c #29393B",
"1  c #353632",
"2  c #323D31",
"3  c #3D3E33",
"4  c #344132",
"5  c #3D4433",
"6  c #3D4B33",
"7  c #39513D",
"8  c #3F583F",
"9  c #424234",
"0  c #414E34",
"q  c #4C4C36",
"w  c #445334",
"e  c #475835",
"r  c #4B5B36",
"t  c #505037",
"y  c #5D5B3B",
"u  c #615E3A",
"i  c #4F6037",
"p  c #506037",
"a  c #536438",
"s  c #5D673A",
"d  c #566839",
"f  c #5B6E3A",
"g  c #5E723B",
"h  c #65633D",
"j  c #6A683E",
"k  c #646A3C",
"l  c #62763C",
"z  c #657A3D",
"x  c #2F4340",
"c  c #334844",
"v  c #3B534A",
"b  c #3E5C52",
"n  c #415B40",
"m  c #496645",
"M  c #4C6B46",
"N  c #4F6E48",
"B  c #587546",
"V  c #53744A",
"C  c #456355",
"Z  c #416458",
"A  c #4D6C5B",
"S  c #5A6F56",
"D  c #50715E",
"F  c #677F42",
"G  c #747241",
"H  c #797642",
"J  c #7C7943",
"K  c #727D55",
"L  c #527561",
"P  c #567964",
"I  c #597D67",
"U  c #807D44",
"Y  c #6D833F",
"T  c #5C8150",
"R  c #6D8541",
"E  c #748B41",
"W  c #788F42",
"Q  c #7D9543",
"!  c #7F9845",
"~  c #76934A",
"^  c #608552",
"/  c #648B55",
"(  c #698D53",
")  c #6B955A",
"_  c #729F5E",
"`  c #7BA55E",
"'  c #648064",
"]  c #759B6E",
"[  c #799E6B",
"{  c #638E74",
"}  c #669175",
"|  c #6B9374",
" . c #729673",
".. c #759971",
"X. c #7C9971",
"o. c #76A562",
"O. c #79A763",
"+. c #77A863",
"@. c #7AA863",
"#. c #7DA169",
"$. c #868346",
"%. c #888547",
"&. c #868D46",
"*. c #918D4A",
"=. c #899047",
"-. c #829B45",
";. c #8F954A",
":. c #809948",
">. c #94914B",
",. c #9A964D",
"<. c #9D994F",
"1. c #A09C4E",
"2. c #86A147",
"3. c #89A447",
"4. c #8BA649",
"5. c #8EAA4A",
"6. c #9BA74E",
"7. c #92AE4B",
"8. c #9BAF4E",
"9. c #96B34C",
"0. c #99B64E",
"q. c #9BB94E",
"w. c #84AD5E",
"e. c #89AF5C",
"r. c #92AE5E",
"t. c #8FB357",
"y. c #8CB159",
"u. c #94B553",
"i. c #98B751",
"p. c #9AB850",
"a. c #91B059",
"s. c #98B258",
"d. c #A0BA4F",
"f. c #A6A252",
"g. c #A9A653",
"h. c #AEAA55",
"j. c #B0AB55",
"k. c #AEB355",
"l. c #A4B951",
"z. c #ABB953",
"x. c #A2B559",
"c. c #ADB55D",
"v. c #B3BA56",
"b. c #B4B65D",
"n. c #B9B65B",
"m. c #B6BA59",
"M. c #BEBA5B",
"N. c #849D6F",
"B. c #829C70",
"V. c #82A565",
"C. c #83AB61",
"Z. c #8BAC61",
"A. c #8BA16C",
"S. c #94AE61",
"D. c #99AF60",
"F. c #95A46B",
"G. c #9AA76A",
"H. c #9FA968",
"J. c #9BB060",
"K. c #A4AB66",
"L. c #AAAE64",
"P. c #A0A968",
"I. c #ADB163",
"U. c #B2B361",
"Y. c #C0BA5B",
"T. c None",
/* pixels */
"Y d.q.q.q.q.q.q.z.Y.Y.Y.H.{ } V.q.q.q.q.q.a.+.e.q.q.q.q.z.Y.Y.v.q.q.z.M.z.p.q.q.q.y.@.t.q.q.q.q.q.z.M.M.Y.Y.Y.v.5.Q ! ! g O # T.",
"e -.q.q.q.q.q.q.z.Y.M.Y.n.F.{ V.q.q.q.q.q.t.+.e.q.q.q.q.z.Y.Y.v.q.q.z.K.V.i.q.q.q.t.e.q.q.q.q.q.q.z.Y.M.Y.Y.M.z.3.w     O # # T.",
"  w 2.q.q.q.q.q.d.v.Y.M.Y.P.[ u.q.q.q.q.q.t.+.e.q.q.q.q.z.Y.M.v.q.0.z.K.| V.q.q.q.t.e.i.u.q.q.q.q.z.Y.M.v.v.z.q.q.3.z i . @ @ T.",
"T.  w -.q.q.q.q.q.z.Y.Y.I.X.| C.q.q.q.q.q.u.+.e.q.q.q.z.M.M.v.q.q.p.z.M.P.#.q.q.q.t.y.t.y.q.q.q.q.z.M.v.q.q.q.q.q.q.q.3.r . @ # ",
"T.T.O 0 z l Q q.q.p.v.Y.K.} } | V.q.q.q.q.p.y.w.q.q.z.M.M.v.q.q.q.q.z.Y.K.[ i.q.q.q.q.t.w.p.p.q.q.z.Y.v.d.q.q.q.q.q.q.q.5.a + @ ",
"T.T.X r Q Q 4.q.q.q.l.z.U.U.G.} | C.d.q.q.q.t.e.q.q.z.Y.Y.v.q.q.q.p.z.Y.L. .#.q.q.q.q.u.+.e.q.q.q.z.Y.Y.m.l.q.q.q.q.q.q.d.-.X @ ",
"T.X r 4.q.q.q.q.q.q.q.z.Y.Y.n.G.{ #.q.q.q.q.t.e.q.0.l.Y.M.v.q.q.q.z.M.M.Y.P.[ i.q.q.q.t.+.w.0.q.p.z.M.Y.Y.v.7.-.5.q.q.q.7.l + # ",
"T.X z p.q.q.q.q.q.q.p.z.Y.Y.Y.K.{ O.q.q.q.q.t.e.q.q.z.M.v.q.q.q.q.l.M.M.Y.L. .#.u.q.q.t.+.+.w.u.0.l.Y.M.M.z.3.e e -.:.Q z . @ T.",
"T.+ 6 Q q.q.q.q.q.q.l.m.Y.Y.I.X.} #.q.q.q.q.0.u.q.q.l.m.q.q.q.q.q.a.D.M.M.Y.K.} #.q.p.u.@.@.@.e.q.d.m.M.v.q.l.6.H u   X o @ T.T.",
"# # O 6 z l Q q.d.m.m.Y.Y.U.X.} { #.q.q.q.q.q.q.q.q.q.q.q.q.q.q.q.u.S.n.Y.Y.I.} [ p.p.u.@.@.@.w.i.q.z.M.z.q.l.Y.Y.j.h . # # T.T.",
"# @ +       4 Q z.M.Y.M.M.L.} } ] u.q.q.q.q.q.q.q.q.p.q.q.q.q.q.q.u.@.D.M.Y.I.} [ q.q.q.u.@.@.@.e.0.z.v.q.q.l.v.Y.Y.j.j + @ # T.",
"# X w Q ~ V   2 =.Y.M.Y.Y.L.} } #.q.q.q.q.q.q.q.q.q.q.q.u.e.q.q.q.y.+.S.M.M.P.} [ q.q.q.q.u.+.+.w.u.z.m.q.q.q.z.Y.Y.Y.f.+ @ # T.",
"+ w 2.p.w.o./ V s z.v.Y.Y.n.H.} | #.q.q.q.q.q.q.q.q.q.q.t.w.q.q.u.+.+.D.M.I.} } #.q.q.q.q.u.@.@.@.w.l.m.q.q.q.l.Y.Y.Y.f.+ # @ T.",
"o k z.u.+.+.@.` 3.q.p.z.M.Y.M.P.} [ q.q.q.q.q.q.q.q.q.q.u.w.q.q.u.+.S.M.M.I.} #.q.q.q.q.q.u.@.+.O.w.l.m.q.q.q.l.Y.Y.n.$.# @ T.T.",
"o G m.u.@.@.@.@.e.y.q.l.M.Y.Y.I.} [ q.q.q.q.q.q.q.q.q.q.t.w.q.q.u.+.S.M.M.U. ...u.q.q.q.q.u.@.@.@.C.l.m.q.q.q.l.k.<.%.o # T.T.T.",
"+ 9 =.p.t.y.@.@.+.@.y.l.Y.Y.U.X.} | #.q.q.q.q.q.q.q.q.q.u.w.p.q.t.S.M.M.M.M.I.} [ p.q.q.u.a.+.@.+.e.l.m.q.q.q.0.5.l d o # T.T.T.",
"@ O 4 z W p.y.+.@.+.C.l.M.M.U.} } } | V.p.q.q.q.q.q.q.q.u.+.w.u.@.Z.n.Y.M.M.L.} [ q.p.p.y.@.@.@.@.w.l.m.q.q.q.q.q.q.9.f $ @ T.T.",
"T.@ O   r q.u.@.@.+.Z.m.Y.U.B.X.U.K.} ..p.p.q.q.q.q.q.q.u.@.w.u.@.@.S.Y.M.I.| | #.q.u.@.@.@.@.@.@.w.l.m.q.q.q.q.q.q.q.5.$ + T.T.",
"@ + 6 Q -.q.u.@.@.+.Z.Y.M.U.U.U.M.M.K.| #.q.q.q.q.q.q.q.u.@.` u.@.+.Z.M.Y.U.X.#.p.p.u.` @.@.@.@.e.q.l.v.q.q.q.q.q.q.q.7.$ # T.T.",
"@ 6 ! p.q.u.w.@.@.@.Z.M.Y.M.Y.Y.M.Y.U.} ..p.q.q.q.q.q.q.u.@.w.u.@.@.Z.M.M.Y.n.p.q.p.p.p.C.@.@.@.u.q.q.q.q.q.q.q.q.q.0.Y $ T.T.T.",
"+ r q.u.y.e.@.+.+.+.@.J.M.M.M.Y.Y.M.U.} [ p.q.q.q.q.q.q.p.@.@.@.@.+.Z.U.Y.M.Y.n.p.q.q.q.u.@.@.+.` q.q.q.q.q.q.q.q.0.Y @ T.T.T.T.",
"@ 2 E p.y.@.@.@.@.O.@.V.J.M.Y.M.M.n.X.}  .q.q.q.q.q.q.q.u.@.@.@.+.@.Z.M.Y.M.M.Y.M.q.q.q.u.@.@.@.w.q.q.q.q.q.q.q.q.7.# X T.T.T.T.",
"# + : z R y.@.+.@.+.O.+.C.Y.M.Y.Y.U.| } ] p.q.q.q.q.q.q.q.u.@.@.+.@.@.Z.n.M.Y.M.m.u.q.q.u.@.@.@.@.q.q.q.q.q.q.q.q.7.V m + # T.T.",
"@ @ 2 W -.u.@.@.@.@.@.+.Z.M.Y.M.U.B.| | t.q.q.q.q.q.q.q.q.q.u.@.@.@.@.@.Z.M.M.Y.U.[ q.u.@.@.@.@.w.q.q.q.q.q.q.q.q.i.@.o.M $ # T.",
"@ 2 ! q.q.u.@.@.@.@.@.@.Z.M.M.M.U.|  .a.q.q.q.q.q.q.q.q.q.q.p.@.@.+.@.@.C.Y.Y.Y.I.] q.u.@.@.C.w.q.q.q.q.q.0.q.q.q.0.@.@.[ = @ T.",
"@ 0 0.q.q.e.@.@.` y.@.C.c.M.M.n.N.|  .q.q.q.q.q.q.q.q.q.q.p.u.+.@.@.@.@.S.U.Y.U.|  .p.p.@.C.M.l.q.q.q.q.q.z.l.q.u.y.@.O._ & # T.",
"@ 0 0.q.u.@.@.@.@.p.u.s.M.Y.M.M.L.| } #.u.q.q.q.q.q.q.q.q.p.@.@.+.+.@.S.n.M.Y.U.|  .0.i.@.C.M.p.q.q.q.q.d.v.M.-./ ( @.+.T & # T.",
"# : R 0.e.O.+.N B q.q.q.M.M.Y.M.M.I.| } [ p.q.q.q.q.q.q.C.@.@.@.+.+.C.U.M.M.U. .}  .i.i.@.a.n.l.q.q.q.q.q.d.k.j @ ; ^ T $ @ # T.",
"@ @ * F +.o.M ; ( q.q.m.Y.Y.M.Y.M.M.U.|  .i.p.w.p.q.q.p.@.+.+.@.+.+.C.M.M.U. .} | ] 0.i.w.M.Y.m.q.q.q.q.q.q.d.m.H # O O @ @ T.T.",
"T.@ @ % M m > / u.q.q.l.z.M.Y.M.Y.M.U. .| i.q.@.0.q.q.u.@.@.@.@.+.@.C.M.U. .} } ] u.q.i.S.M.Y.M.z.q.q.q.q.q.z.M.M.H - @ # T.T.T.",
"T.T.# @ + X > ` p.q.q.q.q.z.M.M.M.M.n. .| p.u.w.u.q.q.p.` @.@.+.+.@.p.M.B.X.}  .a.q.q.d.n.M.M.Y.M.d.q.q.q.k.M.M.Y.n.3 # T.T.T.T.",
"T.T.T.T.@ ; / ` w.q.q.q.q.q.M.M.Y.Y.U. . .p.p.@.w.p.q.q.p.@.@.@.@.C.p.Y.U.U.B.}  .a.q.q.M.Y.M.M.M.q.q.q.0.M.Y.Y.Y.n.3 # T.T.T.T.",
"T.T.T.T.# > o.@.@.e.p.q.q.q.M.M.M.M.N. .a.q.p.` @.C.p.q.q.@.+.@.@.@.p.p.M.M.m.B.}  .u.q.b.M.M.M.m.q.q.q.d.M.Y.M.n.,.1 # T.T.T.T.",
"T.T.T.T.@ ; o.O.+.+.w.p.q.p.Y.Y.Y.n...y.q.q.p.@.@.@.v.p.p.@.@.@.@.i.q.q.q.M.Y.U. .| p.p.C.m.M.M.q.q.q.q.q.M.M.Y.n.9 . X @ # T.T.",
"T.T.T.# # $ M ` @.+.@.q.p.m.M.Y.U.F.a.q.q.q.q.u.@.C.m.M.q.p.w.@.@.p.p.q.l.M.Y.U. .] p.p.C.M.M.p.q.q.q.q.l.Y.Y.Y.1.9 j U - # # T.",
"T.T.# @ X X # M +.@.@.q.m.Y.M.Y.M.s.p.q.q.q.q.q.C.@.M.M.l.p.@.@.C.p.q.l.M.M.U.X. .y.p.p.C.n.M.p.q.q.q.z.n.Y.Y.1.1 j Y.Y.$.- + @ ",
"T.@ @ $ W Q > O m ` +.e.M.M.Y.M.M.M.m.p.q.q.q.q.p.@.n.Y.M.p.@.@.p.q.q.M.M.M.X.| +.@.p.p.w.c.M.l.q.q.q.M.Y.M.M.E J n.M.Y.M.$.1 @ ",
"T.# * W q.q.-.-.! @.+.@.U.M.M.Y.M.Y.Y.m.l.q.q.q.p.C.M.M.M.p.C.@.u.q.q.M.M.n.B.+.@.@.u.p.w.@.c.p.q.q.q.v.m.M.Y.Y.Y.M.Y.M.M.M.q @ ",
"T.@ : 7.q.q.q.q.q.@.@.@.S.n.Y.Y.M.Y.Y.Y.M.p.p.i.C.@.m.M.l.p.@.@.u.q.p.M.M.Y.n.C.@.@.@.p.p.@.@.p.q.q.q.q.q.m.M.Y.Y.M.Y.Y.M.M.t @ ",
"T.@ ; 7.q.q.q.p.y.@.O.+.@.S.M.Y.Y.M.Y.M.Y.l.p.w.@.@.m.M.l.p.C.@.@.p.p.M.Y.M.n.C.@.@.@.p.p.@.@.u.q.q.q.q.q.q.m.Y.Y.Y.M.Y.M.<.3 @ ",
"T.# $ l 9.q.q.p.` @.@.@.+.@.m.U.M.Y.M.Y.M.l.p.@.@.@.U.Y.M.M.Z.@.@.u.q.M.M.n.C.@.@.C.p.p.w.+.w.p.q.q.q.q.q.d.m.Y.M.Y.Y.1.>.3 + # ",
"T.T.@ @ g z 9.y.@.@.@.@.@.c.M.Y.Y.M.Y.M.z.p.q.@.+.@.Z.U.Y.M.n.Z.@.p.m.M.M.Z.@.@.@.a.p.p.w.@.u.p.q.q.q.q.q.d.M.Y.Y.M.L.S C % @ @ ",
"T.T.T.T.X + 5.@.+.@.t.c.c.M.M.M.M.Y.M.z.q.q.e.@.+.@.@.m.Y.M.M.Z.+.p.m.Y.M.e.@.@.@.@.u.q.w.@.u.p.q.q.d.z.z.m.M.M.L.K. .} | A , + ",
"T.T.T.T.@ E 9.w.@.y.q.m.M.Y.M.Y.Y.M.M.y.w.` @.@.@.@.@.m.M.Y.M.C.+.p.m.Y.l.q.q.C.@.@.u.q.p.w.@.t.q.q.v.m.M.Y.Y.M.G.| } } { } c @ ",
"T.T.T.$ R 0.q.C.y.q.q.M.Y.M.Y.M.M.M.D.@.@.+.@.+.+.@.c.M.M.M.a.@.@.p.q.m.l.q.p.@.+.@.u.p.q.p.w.@.0.q.q.q.v.M.Y.M.Y.G. .| } P < # ",
"T.T.@ $ 5.q.q.w.u.q.q.m.M.Y.M.Y.z.l.w.t.u.w.@.@.@.c.Y.M.M.l.p.p.p.q.q.q.q.q.w.+.@.@.@.u.q.u.@.+.u.q.q.q.q.m.Y.Y.M.M.H.I D < + # ",
"T.T.# $ 4.q.q.u.p.q.q.m.Y.M.M.Y.l.q.p.p.p.p.@.@.@.b.M.z.p.q.q.q.q.q.q.q.q.q.w.@.+.+.@.u.p.w.+.w.u.q.q.q.q.k.M.M.Y.M.M.u   @ # T.",
"T.T.# # f 7.q.q.q.q.q.M.M.Y.z.l.p.q.q.q.q.p.w.@.@.b.Y.l.q.q.q.q.q.q.q.q.q.q.q.w.@.@.@.u.` @.@.p.q.q.q.q.q.q.m.Y.M.Y.M.K C , + # ",
"T.T.T.# O d l 5.q.q.q.l.m.Y.l.q.q.q.q.q.q.q.w.+.+.b.M.l.q.q.q.q.q.q.q.q.q.q.q.w.@.@.@.u.w.` u.q.q.q.q.q.q.d.M.Y.Y.Y.M.B.} L < @ ",
"T.T.T.@ O Y Q 9.q.q.q.q.m.Y.l.q.q.q.q.q.q.p.w.@.@.c.M.l.q.q.q.q.q.q.p.q.q.q.p.C.@.@.u.q.y.u.q.q.q.q.q.q.q.m.Y.Y.Y.Y.I.X.} } v + ",
"T.T.# @ Y 9.q.q.q.q.q.q.m.z.q.q.q.q.q.q.q.e.+.@.@.c.z.q.q.q.q.q.q.q.e.t.p.u.C.@.@.u.q.q.q.q.q.q.q.q.q.q.d.m.Y.g.g.K.X.} } } v @ ",
"T.@ # + 3.q.q.q.q.q.q.q.l.q.q.v.M.l.q.q.e.` @.+.@.b.l.q.q.q.q.q.q.q.y.@.@.@.@.@.@.t.q.q.q.q.q.q.q.q.q.q.v.M.Y.j Z L { } | I x + ",
"T.# # + 2.q.q.q.z.l.q.q.q.q.q.m.Y.l.q.q.p.` @.@.+.c.z.q.q.q.q.q.q.q.v.Z.@.@.+.@.+.@.t.u.q.q.q.q.q.q.q.q.q.v.M.*.3 . C L L x + # ",
"T.@ # + d 5.q.q.v.l.q.q.q.q.q.v.Y.l.q.q.q.e.+.O.@.c.l.q.q.q.q.q.q.q.m.S.+.O.@.@.@.@.@.@.y.q.q.q.q.q.q.q.q.0.v.Y.>.9     X @ # @ ",
"T.T.# @ X a 5.q.m.m.l.q.q.q.q.v.Y.M.l.q.q.w.+.@.@.I.l.q.q.q.q.q.q.q.v.S.+.@.t.y.@.@.O.@.@.y.q.q.q.q.q.q.q.d.M.M.Y.>.J J q o @ T.",
"T.T.@ + O   r l h.Y.M.l.q.q.q.m.M.M.z.q.y.@.@.@.@.C.u.p.q.q.q.q.q.q.v.J.@.+.u.q.q.y.@.@.@.@.t.q.q.q.d.d.l.m.Y.Y.Y.Y.Y.M.<.q O T.",
"T.# o N T / ~ r y g.Y.z.q.q.q.m.Y.M.z.q.e.+.O.@.@.@.a.q.q.q.q.q.q.q.v.M.S.O.a.q.q.q.e.+.@.+.t.q.q.q.m.M.Y.M.Y.M.Y.M.M.M.Y.J . T.",
"# + M ` @.+.u.5.Q 8.m.m.l.q.q.v.Y.Y.z.0.u.w.+.+.+.` a.q.q.p.q.q.q.q.v.M.D.O.t.q.q.q.w.+.@.@.u.q.q.q.v.Y.M.Y.M.Y.Y.Y.Y.Y.g.s o T.",
"# O ( @.@.e.q.q.q.q.v.Y.z.q.q.v.Y.Y.z.q.q.e.@.@.+.y.q.q.q.v.z.q.q.q.v.Y.S.+.t.q.q.p.e.+.@.u.q.q.q.q.v.Y.Y.M.M.M.M.g.,.,.u . T.T.",
"# + v _ @.t.q.q.q.q.v.Y.m.l.q.v.Y.Y.m.z.q.e.+.@.@.t.d.q.q.v.z.q.q.q.v.Y.D.+.u.q.q.e.+.+.a.q.q.q.q.p.v.Y.Y.Y.M.M.Y.>.g z 0 o T.T.",
"@ @ X 8 ) @.u.q.q.z.m.Y.Y.z.q.v.Y.Y.Y.z.q.e.+.+.@.t.q.q.z.Y.z.q.q.q.v.Y.J.@.u.q.q.e.+.@.t.q.q.q.q.q.z.m.M.Y.M.M.Y.z.q.d.-.w   T.",
"T.# O   7 ) C.w.x.M.Y.Y.K.r.q.q.v.M.Y.z.q.e.@.@.+.t.q.q.v.M.z.p.q.q.v.Y.D.y.q.q.q.e.+.+.y.q.q.q.q.q.q.v.Y.Y.Y.M.m.l.q.q.p.-.w O ",
"T.  f Q Q 4.t.t.k.Y.M.Y.F.C.q.q.v.M.M.z.q.p.e.+.@.t.q.z.M.M.M.z.q.q.v.Y.s.y.q.q.q.y.+.@.@.t.q.q.q.q.q.z.Y.M.M.m.d.q.q.q.q.l.Y . ",
". f 7.q.q.q.q.q.v.Y.Y.Y.G.| [ e.d.v.Y.z.q.q.e.+.y.q.q.q.v.Y.M.M.z.q.m.Y.D.y.q.q.q.y.+.@.+.y.q.q.q.q.q.v.Y.Y.M.Y.z.q.q.q.q.d.z . "
};
