/* XPM */
static char *_fa306f56c7d44cfa2f08d73252d082ewR7Hbo9jJ4kdhq7H[] = {
/* columns rows colors chars-per-pixel */
"64 64 6 1 ",
"  c None",
". c #161C2E",
"X c #AC7A58",
"o c #CEA554",
"O c #E9F044",
"+ c white",
/* pixels */
"                                                                ",
"                                                                ",
"                                                                ",
"                                                                ",
"                                                                ",
"                                                                ",
"                                                                ",
"                                                                ",
"                                                                ",
"                                                                ",
"                                                                ",
"                                                                ",
"                                                                ",
"                                                                ",
"                                                                ",
"                                                                ",
"                                                                ",
"                                                                ",
"                                                                ",
"                                                                ",
"                                                                ",
"                                                                ",
"                                                                ",
"                                                                ",
"                                                                ",
"                                       ..                       ",
"                                       ....                     ",
"                                       .OOO.                    ",
"                                     ...ooOo.                   ",
"                                     .++.Ooo.                   ",
"                                .......++...                    ",
"                               ..OO++O..OO.                     ",
"                              ..OO++++Oo...                     ",
"                              .OOO++X+Oo..                      ",
"                           ....O...X++OOo..                     ",
"                          ..OoX..o.XXOOOo..                     ",
"                         .O++Oo..oOOOOOooo.                     ",
"                        .O+++OO....OOOOooX.                     ",
"                        .O++OXXO.O..ooooXX.                     ",
"                        .oOOOOX..O..oXXXX..                     ",
"                        .oOOOOXXXX.OOoXX..                      ",
"                        .oOOOOXOOOOOOoXXX.                      ",
"                        .ooOOOOOOOOOOoXXX..                     ",
"                        ..oooOOOOOOOooXXX..                     ",
"                         .oooooooooooXXX..                      ",
"                          .XooooooooXXX...                      ",
"                           ...XXoXX.....                        ",
"                              ......                            ",
"                                                                ",
"                                                                ",
"                                                                ",
"                                                                ",
"                                                                ",
"                                                                ",
"                                                                ",
"                                                                ",
"                                                                ",
"                                                                ",
"                                                                ",
"                                                                ",
"                                                                ",
"                                                                ",
"                                                                ",
"                                                                "
};
