/* XPM */
static char *_d28a95b3784434b9452c457ea937b533G2DqRrCnesLd66J[] = {
/* columns rows colors chars-per-pixel */
"64 64 6 1 ",
"  c None",
". c #9B869C",
"X c #3D253B",
"o c #877688",
"O c #877688",
"+ c gray80",
/* pixels */
"                                                                ",
"                                                                ",
"                                                                ",
"                                                                ",
"                                                                ",
"                                                                ",
"                            XXXXXXXX                            ",
"                            XXXXXXXX                            ",
"                          XX++++++++XX                          ",
"                          XX++++++++XX                          ",
"                        XXXX..++++++XXXX                        ",
"                        XXXX..++++++XXXX                        ",
"                      XX++XX........XX++XX                      ",
"                      XX++XX........XX++XX                      ",
"                      XX++ooXXXXXXXX++++XX                      ",
"                      XX++ooXXXXXXXX++++XX                      ",
"                      XX++oo++++++++++++XX                      ",
"                      XX++oo++++++++++++XX                      ",
"                        XXoo++++++++++XX                        ",
"                        XXoo++++++++++XX                        ",
"                        XX++XXXXXXXX++XX                        ",
"                        XX++XXXXXXXX++XX                        ",
"                        XX++++++++++++XX                        ",
"                        XX++++++++++++XX                        ",
"                        XX++++++++++++XX                        ",
"                        XX++++++++++++XX                        ",
"                        XX++++++++++++XX                        ",
"                        XX++++++++++++XX                        ",
"                      XX++++oo++++++++++XX                      ",
"                      XX++++oo++++++++++XX                      ",
"                      XX++++oooo++++++++XX                      ",
"                      XX++++oooo++++++++XX                      ",
"                    XX++++++++++++++++++++XX                    ",
"                    XX++++++++++++++++++++XX                    ",
"                  XX++++XXXXXXXXXXXXOO++++++XX                  ",
"                  XX++++XXXXXXXXXXXXOO++++++XX                  ",
"                XX++XXXXXXXXXXXXXXXXXXOO++OOOOXX                ",
"                XX++XXXXXXXXXXXXXXXXXXOO++OOOOXX                ",
"              XX++OOOOXXXXXXXXXXXXXXXXXX++++OO++XX              ",
"              XX++OOOOXXXXXXXXXXXXXXXXXX++++OO++XX              ",
"            XX++OOOOOOOOOOXXXXXXXXXXXXOOOO++++OO++XX            ",
"            XX++OOOOOOOOOOXXXXXXXXXXXXOOOO++++OO++XX            ",
"          XX++OOXXXXXXXXOOOOOOOOOOOOOOOO++OO++++OO++XX          ",
"          XX++OOXXXXXXXXOOOOOOOOOOOOOOOO++OO++++OO++XX          ",
"        XX++OOXXXXXXXXXXXXXXXXXXOO++++++OOOOOO++++OO++XX        ",
"        XX++OOXXXXXXXXXXXXXXXXXXOO++++++OOOOOO++++OO++XX        ",
"      XX++OOXXXXXXXXXXXXXXOOOOOOOOOOOOOOOOOOOO++++++OO++XX      ",
"      XX++OOXXXXXXXXXXXXXXOOOOOOOOOOOOOOOOOOOO++++++OO++XX      ",
"      XX++XXXXXXXXOOOOOOOOOOOOOOOOOOOOOOOOOOOOOO++++OO++XX      ",
"      XX++XXXXXXXXOOOOOOOOOOOOOOOOOOOOOOOOOOOOOO++++OO++XX      ",
"      XXOOXXXXOOOOOO++++++++++++++++++++++++OOOO++OOOOOOXX      ",
"      XXOOXXXXOOOOOO++++++++++++++++++++++++OOOO++OOOOOOXX      ",
"        XXOOXXXXOO++++++++++++++OOOOOOXX++++++++OOOOXXXX        ",
"        XXOOXXXXOO++++++++++++++OOOOOOXX++++++++OOOOXXXX        ",
"          XXXXXXOOOOOO++++++++++++++++++++OOOOOOXXXXXX          ",
"          XXXXXXOOOOOO++++++++++++++++++++OOOOOOXXXXXX          ",
"                XXXXXXXXOOOOOOOOOOOOOOOOXXXXXXXX                ",
"                XXXXXXXXOOOOOOOOOOOOOOOOXXXXXXXX                ",
"                        XXXXXXXXXXXXXXXX                        ",
"                        XXXXXXXXXXXXXXXX                        ",
"                                                                ",
"                                                                ",
"                                                                ",
"                                                                "
};
